# xmcd
#
# Track frame offsets: 
#        150
#        30914
#        51023
#        67745
#        86218
#        103327
#        122523
#        136827
#        153111
#        169103
#        189961
#
# Disc length: 2714 seconds
#
# Revision: 3
# Processed by: cddbd v1.5.2PL0 Copyright (c) Steve Scherf et al.
# Submitted via: ExactAudioCopy v1.0b3
#
DISCID=800a980b
DTITLE=Black Keys, The - Turn Blue
DYEAR=2014
DGENRE=Blues
TTITLE0=Weight Of Love
TTITLE1=In Time
TTITLE2=Turn Blue
TTITLE3=Fever
TTITLE4=Year In Review
TTITLE5=Bullet In The Brain
TTITLE6=It's Up To You Now
TTITLE7=Waiting On Words
TTITLE8=10 Lovers
TTITLE9=In Our Prime
TTITLE10=Gotta Get Away
EXTD=
EXTT0=
EXTT1=
EXTT2=
EXTT3=
EXTT4=
EXTT5=
EXTT6=
EXTT7=
EXTT8=
EXTT9=
EXTT10=
PLAYORDER=
